<mxfile host="Electron" modified="2023-11-02T12:41:14.307Z" agent="Mozilla/5.0 (Windows NT 10.0; Win64; x64) AppleWebKit/537.36 (KHTML, like Gecko) draw.io/22.0.3 Chrome/114.0.5735.289 Electron/25.8.4 Safari/537.36" etag="rBMtOAbm2Ry64u-k-L0b" version="22.0.3" type="device" pages="2">
  <diagram id="oY38kdm5o83EHuReV2T8" name="/:id/members">
    <mxGraphModel dx="780" dy="1712" grid="1" gridSize="10" guides="1" tooltips="1" connect="1" arrows="1" fold="1" page="0" pageScale="1" pageWidth="850" pageHeight="1100" math="0" shadow="0">
      <root>
        <mxCell id="0" />
        <mxCell id="1" parent="0" />
        <mxCell id="sdEwPJp4zkoKklKMmfEP-1" style="edgeStyle=none;curved=1;rounded=0;orthogonalLoop=1;jettySize=auto;html=1;fontSize=12;startSize=8;endSize=8;fontFamily=Helvetica;" parent="1" source="sdEwPJp4zkoKklKMmfEP-2" edge="1">
          <mxGeometry relative="1" as="geometry">
            <mxPoint x="260" y="-920" as="targetPoint" />
          </mxGeometry>
        </mxCell>
        <mxCell id="sdEwPJp4zkoKklKMmfEP-2" value="Client" style="rounded=0;whiteSpace=wrap;html=1;fontFamily=Helvetica;" parent="1" vertex="1">
          <mxGeometry x="200" y="-1200" width="120" height="40" as="geometry" />
        </mxCell>
        <mxCell id="sdEwPJp4zkoKklKMmfEP-3" style="edgeStyle=none;curved=1;rounded=0;orthogonalLoop=1;jettySize=auto;html=1;fontSize=12;startSize=8;endSize=8;fontFamily=Helvetica;" parent="1" source="sdEwPJp4zkoKklKMmfEP-4" edge="1">
          <mxGeometry relative="1" as="geometry">
            <mxPoint x="500" y="-920" as="targetPoint" />
          </mxGeometry>
        </mxCell>
        <mxCell id="sdEwPJp4zkoKklKMmfEP-4" value="Project" style="rounded=0;whiteSpace=wrap;html=1;fontFamily=Helvetica;" parent="1" vertex="1">
          <mxGeometry x="440" y="-1200" width="120" height="40" as="geometry" />
        </mxCell>
        <mxCell id="sdEwPJp4zkoKklKMmfEP-6" style="edgeStyle=none;curved=1;rounded=0;orthogonalLoop=1;jettySize=auto;html=1;exitX=1;exitY=1;exitDx=0;exitDy=0;entryX=0;entryY=0;entryDx=0;entryDy=0;fontSize=12;startSize=8;endSize=8;fontFamily=Helvetica;" parent="1" source="smrDSZM0pcQOYa3LXeEk-6" target="LEW-G3g9cezNZrhg7D1--1" edge="1">
          <mxGeometry relative="1" as="geometry">
            <mxPoint x="180" y="-1110" as="sourcePoint" />
            <mxPoint x="445" y="-1109.25" as="targetPoint" />
          </mxGeometry>
        </mxCell>
        <mxCell id="LEW-G3g9cezNZrhg7D1--3" value="" style="group" parent="1" vertex="1" connectable="0">
          <mxGeometry x="490" y="-1110" width="200" height="20" as="geometry" />
        </mxCell>
        <mxCell id="LEW-G3g9cezNZrhg7D1--1" value="2" style="rounded=0;whiteSpace=wrap;html=1;fontSize=16;fontFamily=Helvetica;verticalAlign=middle;" parent="LEW-G3g9cezNZrhg7D1--3" vertex="1">
          <mxGeometry width="20" height="20" as="geometry" />
        </mxCell>
        <mxCell id="LEW-G3g9cezNZrhg7D1--2" value="Check if member already exists" style="text;html=1;fillColor=none;align=left;verticalAlign=middle;whiteSpace=wrap;rounded=0;fontSize=12;fontFamily=Helvetica;spacingLeft=4;" parent="LEW-G3g9cezNZrhg7D1--3" vertex="1">
          <mxGeometry x="20" width="180" height="20" as="geometry" />
        </mxCell>
        <mxCell id="_HuFlXUU0kpVzrusB87L-2" value="" style="group" parent="1" vertex="1" connectable="0">
          <mxGeometry x="490" y="-1080" width="200" height="30" as="geometry" />
        </mxCell>
        <mxCell id="_HuFlXUU0kpVzrusB87L-3" value="3" style="rounded=0;whiteSpace=wrap;html=1;fontSize=16;fontFamily=Helvetica;verticalAlign=middle;" parent="_HuFlXUU0kpVzrusB87L-2" vertex="1">
          <mxGeometry width="20" height="30" as="geometry" />
        </mxCell>
        <mxCell id="_HuFlXUU0kpVzrusB87L-4" value="Check if already user workspce member" style="text;html=1;fillColor=none;align=left;verticalAlign=middle;whiteSpace=wrap;rounded=0;fontSize=12;fontFamily=Helvetica;spacingLeft=4;" parent="_HuFlXUU0kpVzrusB87L-2" vertex="1">
          <mxGeometry x="20" width="180" height="30" as="geometry" />
        </mxCell>
        <mxCell id="pE08uwisndCaNIAwmxLj-1" value="" style="group" parent="1" vertex="1" connectable="0">
          <mxGeometry x="490" y="-1040" width="200" height="20" as="geometry" />
        </mxCell>
        <mxCell id="pE08uwisndCaNIAwmxLj-2" value="4" style="rounded=0;whiteSpace=wrap;html=1;fontSize=16;fontFamily=Helvetica;verticalAlign=middle;" parent="pE08uwisndCaNIAwmxLj-1" vertex="1">
          <mxGeometry width="20" height="20" as="geometry" />
        </mxCell>
        <mxCell id="pE08uwisndCaNIAwmxLj-3" value="Create project members" style="text;html=1;fillColor=none;align=left;verticalAlign=middle;whiteSpace=wrap;rounded=0;fontSize=12;fontFamily=Helvetica;spacingLeft=4;" parent="pE08uwisndCaNIAwmxLj-1" vertex="1">
          <mxGeometry x="20" width="180" height="20" as="geometry" />
        </mxCell>
        <mxCell id="pE08uwisndCaNIAwmxLj-4" value="" style="group" parent="1" vertex="1" connectable="0">
          <mxGeometry x="490" y="-1010" width="200" height="20" as="geometry" />
        </mxCell>
        <mxCell id="pE08uwisndCaNIAwmxLj-5" value="5" style="rounded=0;whiteSpace=wrap;html=1;fontSize=16;fontFamily=Helvetica;verticalAlign=middle;" parent="pE08uwisndCaNIAwmxLj-4" vertex="1">
          <mxGeometry width="20" height="20" as="geometry" />
        </mxCell>
        <mxCell id="pE08uwisndCaNIAwmxLj-6" value="Create policies based on role" style="text;html=1;fillColor=none;align=left;verticalAlign=middle;whiteSpace=wrap;rounded=0;fontSize=12;fontFamily=Helvetica;spacingLeft=4;" parent="pE08uwisndCaNIAwmxLj-4" vertex="1">
          <mxGeometry x="20" width="180" height="20" as="geometry" />
        </mxCell>
        <mxCell id="mDm4JhoA9aGZH-N1UiIz-1" value="" style="group" parent="1" vertex="1" connectable="0">
          <mxGeometry x="170" y="-1140" width="107" height="30" as="geometry" />
        </mxCell>
        <mxCell id="smrDSZM0pcQOYa3LXeEk-5" value="userId, role" style="text;html=1;fillColor=none;align=right;verticalAlign=middle;whiteSpace=wrap;rounded=0;fontSize=12;fontFamily=Helvetica;spacingLeft=4;spacingRight=4;" parent="mDm4JhoA9aGZH-N1UiIz-1" vertex="1">
          <mxGeometry width="77" height="30" as="geometry" />
        </mxCell>
        <mxCell id="smrDSZM0pcQOYa3LXeEk-6" value="1" style="rounded=0;whiteSpace=wrap;html=1;fontSize=16;container=0;fontFamily=Helvetica;verticalAlign=middle;" parent="mDm4JhoA9aGZH-N1UiIz-1" vertex="1">
          <mxGeometry x="77" width="30" height="30" as="geometry" />
        </mxCell>
        <mxCell id="1z5MWBaqaVlg_9H_56OE-3" value="" style="edgeStyle=none;curved=1;rounded=0;orthogonalLoop=1;jettySize=auto;html=1;fontSize=12;startSize=8;endSize=8;" parent="mDm4JhoA9aGZH-N1UiIz-1" source="smrDSZM0pcQOYa3LXeEk-6" target="smrDSZM0pcQOYa3LXeEk-5" edge="1">
          <mxGeometry relative="1" as="geometry" />
        </mxCell>
        <mxCell id="1z5MWBaqaVlg_9H_56OE-4" value="" style="edgeStyle=none;curved=1;rounded=0;orthogonalLoop=1;jettySize=auto;html=1;fontSize=12;startSize=8;endSize=8;" parent="mDm4JhoA9aGZH-N1UiIz-1" source="smrDSZM0pcQOYa3LXeEk-6" target="smrDSZM0pcQOYa3LXeEk-5" edge="1">
          <mxGeometry relative="1" as="geometry" />
        </mxCell>
      </root>
    </mxGraphModel>
  </diagram>
  <diagram id="T1pzw05JD0ZmWtO84Aos" name="/:id/members/invite">
    <mxGraphModel dx="1194" dy="2127" grid="1" gridSize="10" guides="1" tooltips="1" connect="1" arrows="1" fold="1" page="0" pageScale="1" pageWidth="827" pageHeight="1169" math="0" shadow="0">
      <root>
        <mxCell id="0" />
        <mxCell id="1" parent="0" />
        <mxCell id="A0mP2CyW2oMfTF2Bx58C-1" style="edgeStyle=none;curved=1;rounded=0;orthogonalLoop=1;jettySize=auto;html=1;fontSize=12;startSize=8;endSize=8;fontFamily=Helvetica;" parent="1" source="A0mP2CyW2oMfTF2Bx58C-2" edge="1">
          <mxGeometry relative="1" as="geometry">
            <mxPoint x="57" y="-760" as="targetPoint" />
          </mxGeometry>
        </mxCell>
        <mxCell id="A0mP2CyW2oMfTF2Bx58C-2" value="Client" style="rounded=0;whiteSpace=wrap;html=1;fontFamily=Helvetica;" parent="1" vertex="1">
          <mxGeometry x="-3" y="-1240" width="120" height="40" as="geometry" />
        </mxCell>
        <mxCell id="A0mP2CyW2oMfTF2Bx58C-3" style="edgeStyle=none;curved=1;rounded=0;orthogonalLoop=1;jettySize=auto;html=1;fontSize=12;startSize=8;endSize=8;fontFamily=Helvetica;" parent="1" source="A0mP2CyW2oMfTF2Bx58C-4" edge="1">
          <mxGeometry relative="1" as="geometry">
            <mxPoint x="210" y="-760" as="targetPoint" />
          </mxGeometry>
        </mxCell>
        <mxCell id="A0mP2CyW2oMfTF2Bx58C-4" value="Project" style="rounded=0;whiteSpace=wrap;html=1;fontFamily=Helvetica;" parent="1" vertex="1">
          <mxGeometry x="150" y="-1240" width="120" height="40" as="geometry" />
        </mxCell>
        <mxCell id="A0mP2CyW2oMfTF2Bx58C-5" style="edgeStyle=none;curved=1;rounded=0;orthogonalLoop=1;jettySize=auto;html=1;exitX=1;exitY=1;exitDx=0;exitDy=0;entryX=0;entryY=0;entryDx=0;entryDy=0;fontSize=12;startSize=8;endSize=8;fontFamily=Helvetica;" parent="1" source="A0mP2CyW2oMfTF2Bx58C-20" target="A0mP2CyW2oMfTF2Bx58C-7" edge="1">
          <mxGeometry relative="1" as="geometry">
            <mxPoint x="-110" y="-1110" as="sourcePoint" />
            <mxPoint x="155" y="-1109.25" as="targetPoint" />
          </mxGeometry>
        </mxCell>
        <mxCell id="A0mP2CyW2oMfTF2Bx58C-6" value="" style="group" parent="1" vertex="1" connectable="0">
          <mxGeometry x="200" y="-1120" width="200" height="30" as="geometry" />
        </mxCell>
        <mxCell id="A0mP2CyW2oMfTF2Bx58C-7" value="2" style="rounded=0;whiteSpace=wrap;html=1;fontSize=16;fontFamily=Helvetica;verticalAlign=middle;" parent="A0mP2CyW2oMfTF2Bx58C-6" vertex="1">
          <mxGeometry width="20" height="30" as="geometry" />
        </mxCell>
        <mxCell id="A0mP2CyW2oMfTF2Bx58C-8" value="Ensure that user is not already member" style="text;html=1;fillColor=none;align=left;verticalAlign=middle;whiteSpace=wrap;rounded=0;fontSize=12;fontFamily=Helvetica;spacingLeft=4;" parent="A0mP2CyW2oMfTF2Bx58C-6" vertex="1">
          <mxGeometry x="20" width="180" height="30" as="geometry" />
        </mxCell>
        <mxCell id="A0mP2CyW2oMfTF2Bx58C-9" value="" style="group" parent="1" vertex="1" connectable="0">
          <mxGeometry x="200" y="-1080" width="200" height="30" as="geometry" />
        </mxCell>
        <mxCell id="A0mP2CyW2oMfTF2Bx58C-10" value="3" style="rounded=0;whiteSpace=wrap;html=1;fontSize=16;fontFamily=Helvetica;verticalAlign=middle;" parent="A0mP2CyW2oMfTF2Bx58C-9" vertex="1">
          <mxGeometry width="20" height="30" as="geometry" />
        </mxCell>
        <mxCell id="A0mP2CyW2oMfTF2Bx58C-11" value="Ensure user is workspace member" style="text;html=1;fillColor=none;align=left;verticalAlign=middle;whiteSpace=wrap;rounded=0;fontSize=12;fontFamily=Helvetica;spacingLeft=4;" parent="A0mP2CyW2oMfTF2Bx58C-9" vertex="1">
          <mxGeometry x="20" width="180" height="30" as="geometry" />
        </mxCell>
        <mxCell id="A0mP2CyW2oMfTF2Bx58C-12" value="" style="group" parent="1" vertex="1" connectable="0">
          <mxGeometry x="200" y="-1040" width="200" height="30" as="geometry" />
        </mxCell>
        <mxCell id="A0mP2CyW2oMfTF2Bx58C-13" value="4" style="rounded=0;whiteSpace=wrap;html=1;fontSize=16;fontFamily=Helvetica;verticalAlign=middle;" parent="A0mP2CyW2oMfTF2Bx58C-12" vertex="1">
          <mxGeometry width="20" height="30" as="geometry" />
        </mxCell>
        <mxCell id="A0mP2CyW2oMfTF2Bx58C-14" value="Invite: Create project member without policies (and pending status)" style="text;html=1;fillColor=none;align=left;verticalAlign=middle;whiteSpace=wrap;rounded=0;fontSize=12;fontFamily=Helvetica;spacingLeft=4;" parent="A0mP2CyW2oMfTF2Bx58C-12" vertex="1">
          <mxGeometry x="20" width="180" height="30" as="geometry" />
        </mxCell>
        <mxCell id="A0mP2CyW2oMfTF2Bx58C-15" value="" style="group" parent="1" vertex="1" connectable="0">
          <mxGeometry x="200" y="-1000" width="200" height="30" as="geometry" />
        </mxCell>
        <mxCell id="A0mP2CyW2oMfTF2Bx58C-16" value="5" style="rounded=0;whiteSpace=wrap;html=1;fontSize=16;fontFamily=Helvetica;verticalAlign=middle;" parent="A0mP2CyW2oMfTF2Bx58C-15" vertex="1">
          <mxGeometry width="20" height="30" as="geometry" />
        </mxCell>
        <mxCell id="A0mP2CyW2oMfTF2Bx58C-17" value="Create policies based on role" style="text;html=1;fillColor=none;align=left;verticalAlign=middle;whiteSpace=wrap;rounded=0;fontSize=12;fontFamily=Helvetica;spacingLeft=4;" parent="A0mP2CyW2oMfTF2Bx58C-15" vertex="1">
          <mxGeometry x="20" width="180" height="30" as="geometry" />
        </mxCell>
        <mxCell id="zj95S5ZZ3qlkHkS1qHzP-1" style="edgeStyle=none;curved=1;rounded=0;orthogonalLoop=1;jettySize=auto;html=1;fontSize=12;startSize=8;endSize=8;fontFamily=Helvetica;" parent="1" source="zj95S5ZZ3qlkHkS1qHzP-2" edge="1">
          <mxGeometry relative="1" as="geometry">
            <mxPoint x="500" y="-760" as="targetPoint" />
          </mxGeometry>
        </mxCell>
        <mxCell id="zj95S5ZZ3qlkHkS1qHzP-2" value="Email" style="rounded=0;whiteSpace=wrap;html=1;fontFamily=Helvetica;" parent="1" vertex="1">
          <mxGeometry x="440" y="-1240" width="120" height="40" as="geometry" />
        </mxCell>
        <mxCell id="zj95S5ZZ3qlkHkS1qHzP-3" value="" style="group" parent="1" vertex="1" connectable="0">
          <mxGeometry x="200" y="-960" width="160" height="20" as="geometry" />
        </mxCell>
        <mxCell id="A0mP2CyW2oMfTF2Bx58C-27" value="6" style="rounded=0;whiteSpace=wrap;html=1;fontSize=16;fontFamily=Helvetica;verticalAlign=middle;" parent="zj95S5ZZ3qlkHkS1qHzP-3" vertex="1">
          <mxGeometry width="20" height="20" as="geometry" />
        </mxCell>
        <mxCell id="A0mP2CyW2oMfTF2Bx58C-28" value="project.member-created" style="text;html=1;fillColor=#008a00;align=left;verticalAlign=middle;whiteSpace=wrap;rounded=0;fontSize=12;fontFamily=Helvetica;spacingLeft=4;fontColor=#ffffff;strokeColor=#005700;" parent="zj95S5ZZ3qlkHkS1qHzP-3" vertex="1">
          <mxGeometry x="20" width="140" height="20" as="geometry" />
        </mxCell>
        <mxCell id="zj95S5ZZ3qlkHkS1qHzP-5" value="" style="group" parent="1" vertex="1" connectable="0">
          <mxGeometry x="490" y="-940" width="200" height="30" as="geometry" />
        </mxCell>
        <mxCell id="zj95S5ZZ3qlkHkS1qHzP-6" value="7" style="rounded=0;whiteSpace=wrap;html=1;fontSize=16;fontFamily=Helvetica;verticalAlign=middle;" parent="zj95S5ZZ3qlkHkS1qHzP-5" vertex="1">
          <mxGeometry width="20" height="30" as="geometry" />
        </mxCell>
        <mxCell id="zj95S5ZZ3qlkHkS1qHzP-7" value="Send invite email to member&#39;s email" style="text;html=1;fillColor=none;align=left;verticalAlign=middle;whiteSpace=wrap;rounded=0;fontSize=12;fontFamily=Helvetica;spacingLeft=4;" parent="zj95S5ZZ3qlkHkS1qHzP-5" vertex="1">
          <mxGeometry x="20" width="180" height="30" as="geometry" />
        </mxCell>
        <mxCell id="zj95S5ZZ3qlkHkS1qHzP-4" style="edgeStyle=none;curved=1;rounded=0;orthogonalLoop=1;jettySize=auto;html=1;exitX=0;exitY=1;exitDx=0;exitDy=0;fontSize=12;startSize=8;endSize=8;entryX=0;entryY=0;entryDx=0;entryDy=0;" parent="1" source="A0mP2CyW2oMfTF2Bx58C-28" target="zj95S5ZZ3qlkHkS1qHzP-6" edge="1">
          <mxGeometry relative="1" as="geometry">
            <mxPoint x="500" y="-939.962962962963" as="targetPoint" />
          </mxGeometry>
        </mxCell>
        <mxCell id="zj95S5ZZ3qlkHkS1qHzP-8" style="edgeStyle=none;curved=1;rounded=0;orthogonalLoop=1;jettySize=auto;html=1;fontSize=12;startSize=8;endSize=8;fontFamily=Helvetica;" parent="1" source="zj95S5ZZ3qlkHkS1qHzP-9" edge="1">
          <mxGeometry relative="1" as="geometry">
            <mxPoint x="-100" y="-760" as="targetPoint" />
          </mxGeometry>
        </mxCell>
        <mxCell id="zj95S5ZZ3qlkHkS1qHzP-9" value="Email" style="rounded=0;whiteSpace=wrap;html=1;fontFamily=Helvetica;" parent="1" vertex="1">
          <mxGeometry x="-160" y="-1240" width="120" height="40" as="geometry" />
        </mxCell>
        <mxCell id="zj95S5ZZ3qlkHkS1qHzP-10" style="edgeStyle=none;curved=1;rounded=0;orthogonalLoop=1;jettySize=auto;html=1;exitX=0;exitY=1;exitDx=0;exitDy=0;fontSize=12;startSize=8;endSize=8;entryX=0;entryY=0;entryDx=0;entryDy=0;" parent="1" source="zj95S5ZZ3qlkHkS1qHzP-6" target="zj95S5ZZ3qlkHkS1qHzP-13" edge="1">
          <mxGeometry relative="1" as="geometry">
            <mxPoint x="-70" y="-910.25" as="targetPoint" />
          </mxGeometry>
        </mxCell>
        <mxCell id="zj95S5ZZ3qlkHkS1qHzP-14" value="" style="group" parent="1" vertex="1" connectable="0">
          <mxGeometry x="-110" y="-910" width="160" height="30" as="geometry" />
        </mxCell>
        <mxCell id="zj95S5ZZ3qlkHkS1qHzP-12" value="8" style="rounded=0;whiteSpace=wrap;html=1;fontSize=16;fontFamily=Helvetica;verticalAlign=middle;" parent="zj95S5ZZ3qlkHkS1qHzP-14" vertex="1">
          <mxGeometry width="20" height="30" as="geometry" />
        </mxCell>
        <mxCell id="zj95S5ZZ3qlkHkS1qHzP-15" style="edgeStyle=none;curved=1;rounded=0;orthogonalLoop=1;jettySize=auto;html=1;exitX=0;exitY=1;exitDx=0;exitDy=0;fontSize=12;startSize=8;endSize=8;" parent="zj95S5ZZ3qlkHkS1qHzP-14" source="zj95S5ZZ3qlkHkS1qHzP-13" edge="1">
          <mxGeometry relative="1" as="geometry">
            <mxPoint x="310" y="30" as="targetPoint" />
          </mxGeometry>
        </mxCell>
        <mxCell id="zj95S5ZZ3qlkHkS1qHzP-13" value="User clicks the accept link" style="text;html=1;fillColor=none;align=left;verticalAlign=middle;whiteSpace=wrap;rounded=0;fontSize=12;fontFamily=Helvetica;spacingLeft=4;" parent="zj95S5ZZ3qlkHkS1qHzP-14" vertex="1">
          <mxGeometry x="20" width="140" height="30" as="geometry" />
        </mxCell>
        <mxCell id="zj95S5ZZ3qlkHkS1qHzP-16" value="" style="group" parent="1" vertex="1" connectable="0">
          <mxGeometry x="200" y="-880" width="200" height="30" as="geometry" />
        </mxCell>
        <mxCell id="zj95S5ZZ3qlkHkS1qHzP-17" value="9" style="rounded=0;whiteSpace=wrap;html=1;fontSize=16;fontFamily=Helvetica;verticalAlign=middle;" parent="zj95S5ZZ3qlkHkS1qHzP-16" vertex="1">
          <mxGeometry width="20" height="30" as="geometry" />
        </mxCell>
        <mxCell id="zj95S5ZZ3qlkHkS1qHzP-18" value="Update project member with policies (accepted status)" style="text;html=1;fillColor=none;align=left;verticalAlign=middle;whiteSpace=wrap;rounded=0;fontSize=12;fontFamily=Helvetica;spacingLeft=4;" parent="zj95S5ZZ3qlkHkS1qHzP-16" vertex="1">
          <mxGeometry x="20" width="180" height="30" as="geometry" />
        </mxCell>
        <mxCell id="zj95S5ZZ3qlkHkS1qHzP-20" value="" style="group" parent="1" vertex="1" connectable="0">
          <mxGeometry x="-100" y="-1160" width="167" height="40" as="geometry" />
        </mxCell>
        <mxCell id="A0mP2CyW2oMfTF2Bx58C-19" value="if non member clicks the invite button send userId and role" style="text;html=1;fillColor=none;align=right;verticalAlign=middle;whiteSpace=wrap;rounded=0;fontSize=12;fontFamily=Helvetica;spacingLeft=4;spacingRight=4;" parent="zj95S5ZZ3qlkHkS1qHzP-20" vertex="1">
          <mxGeometry width="147" height="40" as="geometry" />
        </mxCell>
        <mxCell id="A0mP2CyW2oMfTF2Bx58C-20" value="1" style="rounded=0;whiteSpace=wrap;html=1;fontSize=16;container=0;fontFamily=Helvetica;verticalAlign=middle;" parent="zj95S5ZZ3qlkHkS1qHzP-20" vertex="1">
          <mxGeometry x="147" width="20" height="40" as="geometry" />
        </mxCell>
        <mxCell id="zj95S5ZZ3qlkHkS1qHzP-19" value="" style="edgeStyle=none;curved=1;rounded=0;orthogonalLoop=1;jettySize=auto;html=1;fontSize=12;startSize=8;endSize=8;" parent="zj95S5ZZ3qlkHkS1qHzP-20" source="A0mP2CyW2oMfTF2Bx58C-20" target="A0mP2CyW2oMfTF2Bx58C-19" edge="1">
          <mxGeometry relative="1" as="geometry" />
        </mxCell>
      </root>
    </mxGraphModel>
  </diagram>
</mxfile>
